<?xml version="1.0" encoding="UTF-8" standalone="no"?>
<!-- Created with Inkscape (http://www.inkscape.org/) -->

<svg
   version="1.1"
   id="svg2"
   width="1200"
   height="848"
   viewBox="0 0 1200 848"
   sodipodi:docname="virusjpg.jpg.svg"
   inkscape:version="1.1.1 (3bf5ae0d25, 2021-09-20, custom)"
   xmlns:inkscape="http://www.inkscape.org/namespaces/inkscape"
   xmlns:sodipodi="http://sodipodi.sourceforge.net/DTD/sodipodi-0.dtd"
   xmlns:xlink="http://www.w3.org/1999/xlink"
   xmlns="http://www.w3.org/2000/svg"
   xmlns:svg="http://www.w3.org/2000/svg">
  <defs
     id="defs6">
    <rect
       x="908.80341"
       y="186.92551"
       width="272.75608"
       height="111.39255"
       id="rect36582" />
    <rect
       x="289.43788"
       y="332.5282"
       width="50.759997"
       height="52.635914"
       id="rect1396" />
  </defs>
  <sodipodi:namedview
     id="namedview4"
     pagecolor="#ffffff"
     bordercolor="#666666"
     borderopacity="1.0"
     inkscape:pageshadow="2"
     inkscape:pageopacity="0.0"
     inkscape:pagecheckerboard="0"
     showgrid="false"
     inkscape:zoom="0.40212264"
     inkscape:cx="22.381232"
     inkscape:cy="-210.1349"
     inkscape:window-width="1920"
     inkscape:window-height="1080"
     inkscape:window-x="1920"
     inkscape:window-y="0"
     inkscape:window-maximized="1"
     inkscape:current-layer="g47968" />
  <g
     inkscape:groupmode="layer"
     inkscape:label="Image"
     id="g8">
    <g
       id="g47968"
       transform="translate(169.95141,523.23369)">
      <g
         id="g48357"
         inkscape:export-filename="/home/fm/Documents/Projects/Ebola/WEbola/logo/logo.png"
         inkscape:export-xdpi="96"
         inkscape:export-ydpi="96">
        <image
           width="1200"
           height="848"
           preserveAspectRatio="none"
           xlink:href="/home/fm/Documents/Projects/Ebola/WEbola/logo/images/image10..jpg"
           id="image10"
           inkscape:transform-center-x="-24.408741"
           inkscape:transform-center-y="91.770358"
           x="-159.72673"
           y="-525.64484" />
        <path
           id="text1394"
           style="font-style:normal;font-weight:normal;font-size:40px;line-height:1.25;font-family:sans-serif;white-space:pre;shape-inside:url(#rect1396);fill:#000000;fill-opacity:1;stroke:none;stroke-width:21.7901"
           d="M 66.146106,-333.43259 168.71642,63.96585 c 0.26062,-0.17231 0.53753,-0.31779 0.82227,-0.40235 0.22619,-0.0672 0.46074,-0.0988 0.69141,-0.14843 0.37797,0.0374 0.51128,0.0423 0.62695,0.0605 0.037,-0.0221 0.0907,-0.0437 0.125,-0.0586 0.20731,-0.0897 0.41349,-0.18809 0.63281,-0.24219 0.36723,-0.0906 0.91627,-0.0353 0.33789,-0.0781 0.33352,-0.18232 0.70085,-0.25756 1.07227,-0.25781 -0.0136,-0.002 -0.0274,-0.004 -0.041,-0.006 0.31178,-0.26255 0.66068,-0.4142 1.0293,-0.5254 0.0122,-0.007 0.0326,-0.0225 0.043,-0.0273 0.0524,-0.0248 0.15764,-0.0444 0.25195,-0.0645 0.12373,-0.08 0.24713,-0.16038 0.37305,-0.23633 0.75331,-0.28604 1.53504,-0.45012 2.22265,-0.87109 0.37743,-0.25939 0.84413,-0.32249 1.29297,-0.42383 0.40598,-0.20476 0.82088,-0.33989 1.24414,-0.36133 0.2711,-0.0745 0.54077,-0.1555 0.82227,-0.20703 0.15569,0.0485 0.312,0.0948 0.4668,0.14648 0.0528,-0.0122 0.0825,-0.0204 0.13085,-0.0312 -0.007,-2.6e-4 -0.0357,0.002 -0.0273,-0.002 0.30722,-0.14595 1.28917,-0.48402 1.54297,-0.57422 0.37781,-0.0743 0.75104,-0.17254 1.13281,-0.22266 0.24305,-0.0319 1.0466,-0.0607 1.43555,0.11524 0.79302,-0.14952 1.58681,-0.29405 2.37109,-0.48828 0.31532,-0.0781 0.81166,-0.25706 1.13867,-0.22266 0.0821,0.009 0.1597,0.0429 0.24024,0.0605 0.18854,-0.065 0.41097,-0.1588 0.58789,-0.20508 0.004,-0.005 -0.0122,-0.0145 -0.01,-0.0195 0.22508,-0.21566 0.59559,-0.18587 0.89844,-0.25977 0.37019,-0.0903 1.23672,-0.30166 1.89844,-0.19921 0.0133,-0.0154 0.0237,-0.0337 0.0391,-0.0449 0.49206,-0.35975 1.29731,-0.6164 1.875,-0.83593 0.65613,-0.33085 1.31687,-0.62103 2.01953,-0.84766 0.58553,-0.22248 1.21873,-0.2199 1.82031,-0.36328 0.0273,-0.0231 0.0749,-0.0612 0.0957,-0.0801 0.0205,-0.0186 -0.0161,0.0634 -0.043,0.0703 -0.0173,0.004 -0.0353,0.006 -0.0527,0.01 -0.31198,0.26434 -0.96609,0.75031 -0.66406,0.64062 4.7169,-1.71308 0.1019,-0.82267 2.71875,-1.26562 0.68255,-0.23125 2.30683,-1.15286 2.65039,-1.01367 0.63766,0.25832 0.91144,1.03147 1.36719,1.54687 -0.3049,-0.45965 -0.63109,-0.90544 -0.91406,-1.3789 -0.0153,-0.0252 0.0599,-4e-4 0.0898,-0.002 -0.0803,-0.0265 -0.17709,-0.0261 -0.24219,-0.0801 -0.18749,-0.1553 2.18389,-0.60128 2.41993,-0.64648 0.082,-0.0398 0.31599,-0.17754 0.24609,-0.11914 -0.10011,0.0837 -0.15356,0.11102 -0.23633,0.17187 0.24144,-0.12963 0.56756,-0.29205 1.03906,-0.49609 0.0891,-0.0385 0.18588,-0.0483 0.28321,-0.0606 0.0391,-0.0384 0.077,-0.0766 0.12695,-0.0976 0.0148,-0.006 0.0465,-0.003 0.0703,-0.006 0.39012,-0.28421 0.77453,-0.57596 1.20313,-0.79492 0.26971,-0.13779 0.59186,-0.13002 0.88672,-0.19922 0.39951,-0.0938 0.76764,-0.21865 1.14257,-0.36328 -0.13965,0.0999 -0.28185,0.23947 -0.19531,0.19531 0.48682,-0.24848 0.91998,-0.59624 1.41407,-0.83008 0.21068,-0.0998 0.45512,-0.0995 0.67968,-0.16211 0.30336,-0.0846 0.36244,-0.11752 0.59375,-0.22266 0.91005,-0.40062 1.88345,-0.632 2.8125,-0.97851 0.82377,-0.30725 1.51005,-0.61452 2.30469,-0.95899 2.03863,-0.55607 -0.63782,0.0294 2.23047,0.0937 l -0.72266,-0.30859 c -0.0154,-0.004 -0.0624,-0.01 -0.0469,-0.0137 0.11639,-0.0299 0.35731,-0.0611 0.49414,-0.0801 1.4096,-0.17965 2.79064,-0.50334 4.14453,-0.93359 0.62891,-0.19982 0.49633,-0.1247 0.77734,-0.29688 0.40792,-0.18181 0.7857,-0.35099 1.24024,-0.37304 0.0314,-0.0196 0.0603,-0.0404 0.0898,-0.0586 0.60575,-0.27171 1.1843,-0.50222 1.83789,-0.58203 0.69256,-0.7065 1.30408,-0.93737 2.30664,-1.35156 1.07716,-0.44501 2.15896,-0.72615 3.30469,-0.91992 0.18353,-0.18241 0.71494,-0.58035 1.66406,-1.27735 0.35525,-0.26088 0.76055,-0.44677 1.14063,-0.66992 0.94148,-0.5314 1.88534,-1.05583 2.86328,-1.51758 0.13736,-0.0649 0.26697,-0.15419 0.41601,-0.18359 0.0659,-0.013 0.14271,-0.0414 0.21485,-0.0644 0.61665,-0.4267 1.3287,-0.84134 1.4668,-0.90821 0.20843,-0.10095 0.43094,-0.1691 0.64648,-0.2539 0.0443,0.007 0.0886,0.019 0.13281,0.0273 -0.0191,-0.002 -0.029,-0.0115 -0.0234,-0.0371 0.0231,-0.10525 0.14139,-0.15963 0.21289,-0.24023 0.0842,-0.0951 0.16981,-0.19006 0.25391,-0.28516 0.0365,-0.0423 0.0908,-0.0763 0.10938,-0.12891 0.01,-0.0272 -0.0577,0.0595 -0.0781,0.0391 -0.0495,-0.0494 0.88837,-1.56207 1.02149,-1.79102 0.62175,-0.97713 1.78801,-1.81456 2.83398,-2.33008 0.32921,-0.16226 0.68548,-0.2629 1.02734,-0.39648 0.34174,-0.13864 0.41073,-0.1706 0.63477,-0.28125 0.0242,-0.0351 0.0514,-0.0691 0.0723,-0.10547 0.1289,-0.15307 0.27636,-0.28504 0.41602,-0.42578 L 154.27502,-333.43259 Z M 206.77892,53.31546 c -0.0396,0.0289 -0.0793,0.0574 -0.11914,0.0859 0.10585,-0.0124 0.21242,-0.0245 0.31055,-0.0625 0.0665,-0.0258 -0.0856,-0.0358 -0.19141,-0.0234 z m -0.11914,0.0859 c -0.0269,0.003 -0.0513,0.0142 -0.0781,0.0176 -0.0508,0.0498 -0.0995,0.10196 -0.15235,0.14844 0.0783,-0.0528 0.15349,-0.11089 0.23047,-0.16601 z m -32.35156,8.81445 c -0.0138,0.009 -0.0272,0.0184 -0.041,0.0273 0.10838,-0.0243 0.20699,-0.0657 0.32032,-0.082 0.1221,-0.0176 -0.0785,0.0121 -0.2793,0.0547 z m -0.041,0.0273 c -0.0859,0.0192 -0.17107,0.0395 -0.2539,0.0644 -0.18345,0.1015 -0.54544,0.3851 -0.39063,0.31055 0.22367,-0.10771 0.43553,-0.24019 0.64453,-0.375 z m 250.86912,-395.6757 -48.08398,188.16211 c 0.54225,-0.12325 1.13072,-0.20836 1.81836,-0.19727 2.52984,0.0413 5.0597,0.0529 7.58984,0.0469 0.85512,-0.002 1.7131,-0.0712 2.56641,-0.0156 0.60992,0.0398 1.21595,0.11979 1.82422,0.17969 0.40285,0.10879 0.81829,0.13829 1.23047,0.18555 0.24659,-0.0848 0.674,-0.0735 1.46094,-0.0781 1.11657,0.009 2.19249,-0.0156 3.27929,0.30469 0.0257,0.008 0.0487,0.024 0.0742,0.0312 1.17877,-0.0848 1.21783,-0.13612 2.74023,0.15625 0.25546,0.0491 0.5006,0.13875 0.74805,0.2207 1.35952,-0.26999 1.68084,0.3092 2.76953,0.62696 0.16778,0.049 -0.33155,-0.14269 -0.44531,-0.27539 -0.043,-0.0501 0.13327,-0.0298 0.19727,-0.0137 0.62239,0.15697 1.23452,0.35241 1.85156,0.52929 0.32964,0.19888 0.63968,0.43427 0.98828,0.59766 0.0364,0.0171 0.009,-0.10633 0.0488,-0.11133 0.11241,-0.0139 0.2222,0.0462 0.33398,0.0645 0.51516,0.0843 1.05904,0.20851 1.58399,0.16797 -0.0379,-0.004 -0.0755,-0.009 -0.11328,-0.0137 -0.0417,-0.005 0.0832,0.009 0.125,0.0137 0.51215,0.0531 1.0291,0.0743 1.5332,0.17774 0.29081,0.0597 0.54899,0.23071 0.83203,0.32031 0.11857,0.0375 0.24535,0.0337 0.36719,0.0586 0.19749,0.0404 0.39347,0.0912 0.58984,0.13672 0.30913,0.0592 0.6186,0.11854 0.92774,0.17774 0.21303,0.0368 0.42329,0.0908 0.63867,0.10937 0.0795,0.007 0.15888,-0.008 0.23828,-0.0195 -0.0488,-7.9e-4 -0.0977,-1e-4 -0.14649,-0.002 -0.0987,-0.003 0.19625,-0.0308 0.29493,-0.0332 0.0238,-5.7e-4 -0.0428,0.0239 -0.0664,0.0273 -0.0272,0.004 -0.0547,0.004 -0.082,0.008 0.63971,0.0104 1.28108,-0.0213 1.91992,0.0137 0.35674,0.0195 0.70706,0.10435 1.06055,0.15625 0.48767,0.086 0.97568,0.16921 1.46289,0.25781 0.32177,0.0585 0.63779,0.14604 0.96289,0.18164 1.01691,0.1112 1.15944,-0.16426 2.36523,0.0977 0.0995,0.0216 0.19226,0.0684 0.28907,0.0996 0.0704,-0.006 0.1218,-0.0119 0.19336,-0.0176 0.57564,-0.0462 1.15495,-0.004 1.73242,-0.002 0.76012,0.007 1.52113,0.0118 2.28125,0.008 1.12984,1.3e-4 2.25883,6e-5 3.38867,0 1.3905,-2.6e-4 2.78137,-3e-5 4.17187,0 2.16427,-10e-6 4.32792,0 6.49219,0 h 2.74414 2.84961 2.30664 l 27.74415,-109.7406 136.07813,543.37695 H 720.62267 L 771.33556,96.58304 c -1.0801,0.003 -2.1603,0.0119 -3.24023,0 -0.0983,-0.0144 -0.19671,-0.0276 -0.29492,-0.043 0,0 -0.002,0 -0.002,0 -0.45494,0.0392 -0.90884,0.0903 -1.36328,0.13476 -1.64148,0.10802 -3.53257,0.35479 -5.13867,-0.15039 -0.66697,-0.20978 -1.29997,-0.5054 -1.92773,-0.8164 -2.10389,0.14827 -5.11146,0.55982 -6.57422,0.0977 -0.82519,-0.26072 -1.61682,-0.61163 -2.40235,-0.97851 -1.69909,-7e-5 -3.39855,0 -5.09765,0 -0.68391,0 -1.36688,0.003 -2.05078,-0.002 -0.43626,-0.002 -0.84668,0.0167 -1.61719,0.0137 -1.9325,-0.0327 -2.53509,-0.20119 -4.06445,0.0625 -2.23862,0.11205 -3.68905,0.40599 -5.92774,-0.64063 -0.14503,-0.0678 -0.27658,-0.15887 -0.41601,-0.23633 -0.52117,-0.11871 -1.10835,-0.31776 -1.78711,-0.60742 -2.08242,0.20736 -3.89355,-0.22421 -6.5625,-2.82227 -1.63459,-0.56804 -3.15032,-1.54354 -4.40821,-3.02929 -1.13228,-0.95888 -3.25549,-2.39319 -3.69726,-3.8086 -0.0665,-0.21313 -0.11617,-0.43475 -0.16992,-0.65429 -0.70268,-0.19723 -1.40266,-0.39111 -2.14258,-0.73438 -0.94448,-0.43815 -2.13919,-0.86873 -2.60938,-1.77344 -0.70156,-0.0462 -0.54204,0.12722 -1.06836,-0.28711 -0.63735,-0.0957 -1.12474,-0.27621 -1.63281,-0.52539 -0.84687,-0.14388 -1.50924,-0.38311 -2.10156,-0.72461 -1.15613,-0.0536 -2.28944,-0.30667 -3.32227,-0.92187 -0.16197,-0.0965 -0.30425,-0.21978 -0.45898,-0.32617 -0.6778,-0.19049 -1.34091,-0.46782 -2.00781,-0.8125 -0.33961,-0.0687 -0.65665,-0.14662 -0.92579,-0.23242 -1.29396,-0.22592 -2.72509,-0.57658 -3.49804,-0.9043 -1.06397,-0.4511 -1.97773,-1.17292 -2.83399,-1.97461 -0.29051,0.1065 -0.50426,0.17766 -0.80468,0.28906 -0.18767,0.0696 -0.56513,-0.37249 -1.01953,-1.04687 l -31.32028,122.5625 -135.64844,-529.12305 z m 368.92579,0 -71.66407,280.43945 c 0.40635,-0.0453 0.80764,-0.0772 1.19336,-0.0781 4.15145,-0.01 6.90567,2.5973 3.94532,8.7793 -0.15568,0.32508 -0.20987,0.61604 -0.20118,0.88476 0.67103,0.39009 1.07903,0.90583 0.93164,1.57227 0.40415,0.36708 0.76187,0.74372 1.14063,1.11523 -0.0274,0.002 -0.0554,-0.0132 -0.082,0.01 -0.74248,0.59629 -1.52679,1.17872 -2.30078,1.76367 -0.0626,0.11292 -0.12051,0.2282 -0.18555,0.33984 1.09613,0.4414 2.46533,1.26633 3.64063,2.0918 -0.20592,-0.55606 -0.52911,-1.18545 -1.05665,-2.06055 -0.22128,-0.36707 -0.63802,-0.58193 -0.88867,-0.92969 -0.18587,-0.25781 0.5074,0.38034 0.76367,0.56836 0.23374,-0.46014 0.45595,-0.80368 0.66602,-1.06054 -0.0942,-0.21491 -0.20821,-0.34331 -0.31836,-0.48828 0.11896,0.13505 0.31481,0.24681 0.40039,0.39257 1.43547,-1.60822 2.30447,1.31331 2.7207,4.81446 0.15713,0.34653 0.30282,0.73255 0.45508,1.125 0.95997,1.12008 1.40802,2.19828 1.57422,3.30469 0.28522,0.37042 0.57468,0.74878 0.79297,0.97265 0.3329,0.34141 0.55787,0.75769 0.75195,1.19336 1.21449,1.11176 0.58622,0.5948 2.92969,4.02539 0.13393,1.03545 0.2686,1.73658 0.39453,2.43555 0.958,0.82619 1.06643,1.56464 2.49414,5.58984 0.2409,0.38487 -0.0453,-0.0704 0.26172,0.41992 0.0435,0.19249 0.0768,0.38813 0.11524,0.58203 2.13675,2.39896 2.32106,2.5132 2.9746,3.93946 0.045,0.0693 0.0918,0.11612 0.13672,0.19531 0.003,0.006 0.004,0.0114 0.008,0.0176 0.0153,0.0167 0.0297,0.0341 0.0449,0.0508 0.52185,0.21671 1.03781,0.43958 1.36719,0.875 0.74829,0.9892097 1.46618,2.0168797 2.11328,3.0839797 0.19486,0.0516 0.44222,0.10412 0.48242,0.1211 0.98874,0.41787 1.94392,0.90919 2.91211,1.37305 0.31707,0.098 0.63169,0.20282 0.93945,0.32617 0.30941,0.124 0.61172,0.26566 0.91406,0.40625 0.56785,-0.0162 1.13874,-0.0214 1.69336,-0.0156 1.57147,0.1308 2.52253,0.17865 3.64649,0.84571 0.14276,-0.009 0.28516,-0.0205 0.42773,-0.0313 1.36876,0.0573 2.7378,0.0742 4.10742,0.0547 2.32827,-0.012 4.65607,-0.004 6.98438,-0.004 1.69153,2.2e-4 3.38465,-9.9e-4 5.07617,0 1.73933,2.1e-4 3.47748,-1.1e-4 5.2168,0 h 2.05273 2.12891 3.35742 3.50977 4.83593 L 882.62091,-333.4324 Z m -48.40625,321.95508 c -0.0314,-0.0344 -0.0625,-0.0692 -0.0937,-0.10352 0.0171,0.0369 0.0362,0.0776 0.0547,0.11719 0.0185,0.008 0.0362,0.0158 0.0547,0.0234 -0.008,-0.015 -0.009,-0.0243 -0.0156,-0.0371 z m -0.0937,-0.10352 c -0.0159,-0.0344 -0.036,-0.0771 -0.0508,-0.10937 -0.27115,-0.41825 -0.54583,-0.70704 -0.90624,-1.08985 -0.12848,-0.10107 -0.49177,-0.42992 -0.38672,-0.30468 0.43153,0.5145 0.89011,1.00785 1.34375,1.5039 z M 392.47033,-145.04001 c -0.0502,-0.013 -0.0824,0.002 -0.11914,0.01 0.071,0.01 0.14223,0.0192 0.21289,0.0312 0.0453,0.008 -0.0173,-0.0213 -0.0937,-0.041 z m 1.30664,0.24219 c -0.0937,-0.0162 -0.20263,-0.0161 -0.33008,0.004 -1.43491,0.21344 -1.24951,2.08305 -1.16015,3.90625 0.31999,0.001 0.66318,-10e-4 0.92187,0.004 0.0852,-4.3e-4 0.17558,-0.002 0.26367,-0.008 0.54396,-1.81633 1.26537,-3.74061 0.30469,-3.90625 z m -2.12695,1.2832 c -0.39919,0.8651 -0.84082,1.78585 -1.19336,2.62305 0.25579,-7e-5 0.51179,4.3e-4 0.76758,0 0.30686,-1.28147 0.37827,-1.99972 0.42578,-2.62305 z m 3.72656,2.75586 c 0.003,7.1e-4 0.007,5e-4 0.01,0.002 0.003,-4.4e-4 0.006,-5e-4 0.01,-0.002 -0.006,-2.6e-4 -0.0139,1.9e-4 -0.0195,0 z m 11.29492,4.36719 c -0.099,0.11949 -0.20866,0.21389 -0.3125,0.33203 0.0746,0.0181 0.14652,0.0431 0.2207,0.0625 0.064,-0.007 0.0456,-0.009 0.11524,-0.0156 0.20067,-0.3302 0.0873,-0.15316 0.21484,-0.36133 -0.0795,-0.004 -0.15845,-0.0125 -0.23828,-0.0176 z m 0.0234,0.3789 c -0.0233,0.0384 5.7e-4,0.003 -0.0234,0.043 0.0275,0.008 0.0547,0.0155 0.082,0.0234 -0.007,-0.023 0.003,-0.0723 -0.0215,-0.0703 -0.0229,0.002 -0.0148,0.002 -0.0371,0.004 z m -0.0234,0.043 c -0.0308,-0.008 -0.0608,-0.0193 -0.0918,-0.0273 -0.1779,0.0181 -0.18414,0.0274 -0.32031,0.043 -0.0864,0.0962 -0.17007,0.1822 -0.25781,0.27343 0.066,0.006 0.15449,0.0136 0.22656,0.0195 0.10625,-0.0324 0.21132,-0.0703 0.31836,-0.0977 0.14975,-0.24817 0.003,-0.009 0.125,-0.21094 z m 13.00586,1.17774 c -0.0924,-0.002 -0.18497,0.005 -0.27734,0.01 0.0631,0.0152 0.1252,0.0377 0.18945,0.0469 0.0346,0.005 0.12269,-0.0558 0.0879,-0.0566 z m -45.38281,0.31836 -0.041,0.16015 c 0.028,-0.0128 0.056,-0.0242 0.084,-0.0371 -0.02,-0.0418 -0.0297,-0.0822 -0.043,-0.12304 z m 0.14258,0.006 c 0.002,0.018 0.004,0.0459 0.006,0.0664 0.0342,-0.0159 0.0656,-0.031 0.0996,-0.0469 -0.035,-0.007 -0.0705,-0.0123 -0.10547,-0.0195 z m 22.57226,2.34375 c 0.10304,0.20601 0.22081,0.43705 0.33399,0.51954 0.0258,0.0188 0.0447,0.0228 0.0703,0.041 0.07,-0.0156 0.1244,-0.0371 0.20117,-0.0488 -0.0702,-0.10212 -0.15187,-0.19487 -0.22461,-0.29492 -0.12861,-0.0696 -0.26327,-0.12501 -0.38086,-0.2168 z m 24.72461,3.75586 c -0.12936,-0.0666 0.1836,0.24198 0.31836,0.29688 0.0742,0.0302 0.15337,0.0467 0.22852,0.0742 0.0174,-0.01 0.0306,-0.0172 0.0488,-0.0274 -0.19913,-0.11369 -0.39181,-0.23877 -0.5957,-0.34375 z m -1.81445,0.72657 c -0.17476,-0.0571 0.35334,0.11609 0.53711,0.12109 0.0262,6.7e-4 0.0356,-0.002 0.0605,-0.002 -0.19645,-0.0309 -0.3889,-0.051 -0.59765,-0.11914 z m -0.69141,0.54492 c -0.0241,0.0191 -0.0229,0.0231 -0.0449,0.041 0.0164,-0.003 0.0304,-0.003 0.0469,-0.006 -0.002,-0.008 0.009,-0.0437 -0.002,-0.0351 z m 6.6582,0.26953 c -0.0195,0.25407 -0.0281,0.37683 -0.0625,0.71094 0.12798,-0.0451 0.25673,-0.0861 0.38477,-0.13086 -0.01,-0.21066 -0.0137,-0.42815 0.0449,-0.57617 -0.12262,0.001 -0.24475,4.6e-4 -0.36719,-0.004 z m 10.31836,4.78906 c -0.0376,-0.008 0.28458,0.42338 0.62891,0.88281 0.026,-0.007 0.0541,-0.0118 0.0781,-0.0176 0.0559,-0.0455 0.10577,-0.0978 0.1621,-0.14258 -0.436,-0.37406 -0.82722,-0.7141 -0.86914,-0.72266 z m 0.94727,1.3086 c 0.48825,0.21733 0.97402,0.4425 1.47461,0.6289 -0.23271,-0.16279 -0.43678,-0.31735 -0.64063,-0.47265 -0.27336,-0.0726 -0.55577,-0.10404 -0.83398,-0.15625 z m -4.91016,0.002 c -0.1679,0.22726 -0.29861,0.47764 -0.44336,0.71875 0.12469,-0.0377 0.023,-0.005 0.18165,-0.0527 0.27481,-0.0827 0.55376,-0.16387 0.83007,-0.24804 -0.0791,-0.1517 -0.14753,-0.26231 -0.23242,-0.35938 -0.11198,-0.019 -0.22399,-0.0391 -0.33594,-0.0586 z m -28.71289,0.60547 c -0.0856,0.0118 -0.15722,0.0353 -0.10742,0.0351 0.0847,-2.9e-4 0.16924,-0.005 0.25391,-0.006 -0.0336,-0.0217 -0.0809,-0.0384 -0.14649,-0.0293 z m 34.22461,0.0449 c 0.009,0.002 0.0168,0.006 0.0254,0.008 -0.006,-10e-4 -0.0111,-0.008 -0.0176,-0.008 -0.003,-9e-5 -0.005,8e-5 -0.008,0 z m -34.9414,0.19531 c 0.014,0.11543 0.035,0.22438 0.043,0.34571 0.14021,0.0691 0.28145,0.13645 0.42382,0.20117 -0.0894,-0.23512 -0.24892,-0.41455 -0.46679,-0.54688 z m 0.46679,0.54688 c 0.0194,0.0511 0.0579,0.0874 0.0723,0.14257 0.11263,-6e-5 0.22526,7e-5 0.33789,0 -0.087,-0.0292 -0.28227,-0.0862 -0.32813,-0.10351 -0.0283,-0.0107 -0.0544,-0.0265 -0.082,-0.0391 z m 0.0723,0.14257 c -0.16016,1.2e-4 -0.32031,-1.1e-4 -0.48047,0 0.008,0.28727 0.0105,0.57844 0.004,0.88086 0.1802,-0.009 0.36081,-0.0169 0.54101,-0.0254 0.0192,-0.31793 0.001,-0.60507 -0.0645,-0.85547 z m -0.48047,0 c -0.003,-0.11646 -0.008,-0.23136 -0.0156,-0.34374 -0.0674,-0.0332 -0.13117,-0.0762 -0.20313,-0.0977 -0.13336,-0.0401 -0.2788,0.002 -0.41797,0.002 -0.29554,-10e-4 -0.46714,-0.006 -0.66016,-0.008 -0.0523,0.12315 -0.0766,0.28635 -0.10156,0.44922 0.46617,-6.2e-4 0.93228,-0.002 1.39844,-0.002 z m -11.65039,-0.16601 c -0.0874,-0.015 -0.35393,0.003 -0.26563,0.0117 0.17489,0.0178 0.201,0.011 0.35157,0.0254 -0.0259,-0.008 -0.0631,-0.0332 -0.0859,-0.0371 z m -21.63477,3.30859 -0.0391,0.15625 c 0.13611,-0.0113 0.28351,-0.0247 0.41406,-0.0352 0.0475,-0.0287 0.0951,-0.0572 0.14258,-0.0859 -0.19443,-0.0137 -0.31699,-0.0225 -0.51758,-0.0352 z m 68.53321,4.9336 c -1.76608,0.16717 -3.53214,0.33179 -5.29883,0.48437 -0.0406,0.29278 -0.0776,0.5798 -0.11133,0.85742 0.82886,-0.18549 1.65685,-0.37406 2.48633,-0.55664 0.32433,-0.13444 0.5873,-0.24425 0.91601,-0.38086 0.8024,-0.1487 1.4094,-0.28753 2.00782,-0.40429 z m -75.69922,27.30273 c -0.355,0.006 -0.71757,0.01 -1.07422,0.0137 l -0.0547,0.20899 c 0.37032,-0.0848 0.74779,-0.15651 1.12891,-0.22266 z m 0.0898,17.24024 c -0.12247,0.0135 -0.32818,0.0316 -0.52539,0.0508 -0.004,0.0505 -0.002,0.0574 -0.006,0.10156 0.17635,-0.0532 0.35637,-0.0953 0.53125,-0.15234 z m -4.95508,1.45703 c -0.26708,0.0331 -0.50312,0.0529 -0.83007,0.10937 -0.0652,0.0113 -0.1286,0.0315 -0.19336,0.0449 l -0.0625,0.2461 c 0.37594,-0.11872 0.75485,-0.22899 1.13086,-0.34961 -0.0166,-0.0161 -0.0291,-0.034 -0.0449,-0.0508 z m 33.70508,13.86132 c -0.16055,0.0788 -0.16481,0.0762 -0.32422,0.1543 0.005,0.0643 0.0303,0.12531 0.0371,0.18946 0.11589,-10e-6 0.23177,0 0.34766,0 -0.0221,-0.12404 -0.0457,-0.25588 -0.0605,-0.34376 z m -5.0039,4.50196 c -0.0458,0.40744 -0.14772,1.27451 -0.26563,2.36914 h 0.28711 c -0.0135,-0.72825 -0.0237,-1.4822 -0.0215,-2.36914 z m 0.0215,2.36914 c 8.3e-4,0.0444 4.5e-4,0.1008 0.002,0.14453 8.6e-4,-0.0437 5.6e-4,-0.10151 0.002,-0.14453 z m -0.28711,0 h -0.0332 c 0.005,0.0446 0.0109,0.10108 0.0156,0.14453 0.005,-0.0435 0.013,-0.10212 0.0176,-0.14453 z m -0.0176,0.14453 c -0.10591,0.98163 -0.17712,1.67198 -0.35742,3.26367 h -4.70898 c -1.7299,0.10667 -3.43015,-0.27957 -5.14649,-0.39844 -0.43731,0.0574 -0.98432,0.11642 -1.7207,0.0957 -1.325,-0.0645 -2.61,-0.48262 -3.93945,-0.36524 -1.21025,0.18506 -1.93259,-0.0709 -3.20899,-0.49609 -0.96273,-0.3207 -0.61292,-0.62113 -0.93359,-0.28906 -0.002,0.0165 0.0117,0.0493 -0.006,0.0488 -0.94054,-0.0251 -1.86668,-0.171 -2.80664,-0.1914 -0.14535,-0.003 -0.081,-3.7e-4 -0.1543,-0.002 -0.0413,0.005 -0.0494,0.007 -0.0742,0.01 -0.0222,-10e-4 -0.11468,-0.006 -0.17969,-0.01 -0.89155,0.0635 -1.78176,0.0468 -2.67773,0.0391 0.99547,0.90412 -0.48425,0.19373 -1.66016,-0.48047 -0.34425,-0.0493 -0.52639,-0.0871 -1.15039,-0.25195 -1.037,-0.17623 -2.06182,-0.37425 -3.11718,-0.27735 -0.47721,0.0437 -0.47515,0.0417 -0.30079,0.041 -0.91527,-0.0165 -1.86198,0.0686 -2.80273,0.0762 l -61.10547,239.11719 -16.95703,-66.14258 c -0.22596,0.1476 -0.46184,0.2797 -0.66406,0.4668 -3.46084,1.35057 -2.27065,0.66889 -1.35157,0.71679 0.0954,0.005 -0.18939,0.0301 -0.27929,0.0625 -0.55195,0.1988 -1.10803,0.43452 -1.62305,0.71485 -2.00258,0.65236 0.31497,-0.16275 -0.91797,0.27734 -0.17788,0.0635 -0.36692,0.26628 -0.53711,0.29492 -0.42307,0.38372 -1.01921,0.65263 -1.58789,0.86328 -1.28416,0.47565 -0.89469,0.41504 -1.57226,0.49024 -1.6729,0.53928 -3.1352,1.6264 -4.85352,2.07422 -0.93728,0.29459 -1.88313,0.56639 -2.75976,1.02148 -0.33428,0.084 -0.66327,0.19945 -1.00391,0.25195 -0.16269,0.0251 -0.44139,0.13535 -0.49219,-0.0215 -0.001,-0.004 -0.005,-0.01 -0.006,-0.0137 -0.0515,-0.002 -0.0843,0.0246 -0.14258,0.0117 -0.29515,0.043 -0.5879,0.1 -0.88476,0.1289 -0.0468,0.005 -0.0938,0.006 -0.14063,0.01 -0.8835,0.48378 -1.76061,0.97923 -2.65039,1.45117 -0.5097,0.27035 -1.09921,1.103 -1.55859,0.75391 -0.69225,-0.52605 -1.11862,-0.95051 -1.38281,-1.31641 -0.33526,-0.0262 -0.6696,-0.0386 -0.99805,0.0918 -1.16303,0.24813 -2.04497,0.44255 -3.24219,0.66601 -0.26346,0.0492 -0.52564,0.1061 -0.79297,0.125 -0.12021,0.009 -0.24166,-0.0688 -0.35937,-0.043 -0.3102,0.0681 -0.51172,0.43112 -0.87109,0.38672 -0.78895,0.19121 -1.6268,0.44742 -2.35743,0.80469 -0.21624,0.10575 -0.40119,0.27088 -0.61914,0.37305 -0.34462,0.16155 -0.70796,0.27757 -1.0625,0.41601 -0.17364,0.0291 -0.34591,0.0728 -0.52148,0.0859 -0.10205,0.008 -0.21224,-0.0648 -0.30664,-0.0254 -0.17861,0.0746 -0.29966,0.24681 -0.46485,0.34766 -0.77104,0.47075 -1.50004,0.68376 -2.38476,0.875 -0.0389,0.009 -2.27493,0.53779 -2.38672,0.55859 -0.0226,0.004 0.0232,-0.039 0.0352,-0.0586 -0.1032,-0.3372 -0.20551,-0.67458 -0.3086,-1.01172 -0.28889,0.075 -0.57316,0.16644 -0.86328,0.23633 0.15219,0.61975 0.20711,1.15511 -0.29492,1.20507 -0.46801,0.0466 -0.58402,-0.38906 -0.58203,-0.96484 -0.085,0.0187 -0.16685,0.0502 -0.25196,0.0684 -0.0394,0.008 -0.0849,0.0235 -0.125,0.0332 -0.68042,1.87607 3.58073,0.28922 1.46875,1.01367 -0.78521,0.12191 -1.00274,0.13473 -1.89843,0.41993 -0.40574,0.12919 -0.84187,0.69934 -1.19336,0.45898 -0.45292,-0.30976 -0.26344,-1.06834 -0.45117,-1.58398 -0.004,-0.0121 -0.0196,-0.0249 -0.0254,-0.0371 -0.17934,-0.0272 -0.38591,0.0482 -0.54296,-0.0566 -0.36794,-0.2456 -0.46416,-0.43375 -0.68555,-0.64844 -0.0289,0.0323 -0.0571,0.0652 -0.0859,0.0977 2.84235,3.23483 1.40654,3.50104 0.0254,3.0625 -1.46163,0.0796 -2.89769,0.54371 -4.33203,0.79102 -0.30734,0.0707 -0.61492,0.13854 -0.92187,0.21094 -0.1443,0.034 -0.64315,0.17512 -0.65625,0.13672 -0.0152,-0.0446 0.16965,-0.0824 0.12695,-0.0625 -0.79408,0.36918 -0.22505,0.13422 -1.30664,0.52343 -2.13082,0.54035 1.51898,-0.22917 -0.16016,-1.62109 -0.0402,0.80866 -0.4516,2.37444 -1.0039,1.90625 -2.02063,-1.71286 -1.68854,-2.47357 -0.92188,-2.87305 -0.0525,-0.0192 -0.0703,-0.0353 -0.125,-0.0547 -0.67602,-0.23898 -0.87345,1.2621 -0.84375,1.97851 0.0175,0.42203 0.58254,0.60468 0.93359,0.85156 0.0843,0.003 0.16913,0.004 0.25196,0.0195 0.0732,0.0133 -0.16466,0.0417 -0.22461,-0.002 -0.008,-0.006 -0.019,-0.0118 -0.0274,-0.0176 -0.0372,-0.001 -0.0743,-0.005 -0.11132,-0.008 -0.20911,0.0292 -0.41803,0.0774 -0.62891,0.0879 -0.12964,0.007 -0.26707,-0.0874 -0.38672,-0.0371 -0.22015,0.0926 -0.36109,0.31547 -0.5664,0.4375 -0.92983,0.55265 -1.78216,0.72322 -2.84961,0.84375 -0.68362,0.0683 -1.37346,0.0901 -2.05078,0.20508 -0.12384,0.021 -0.23538,0.0862 -0.35352,0.12891 -0.78008,0.28175 -1.54887,0.57771 -2.38086,0.68164 -1.70751,0.18314 -3.415,0.32707 -5.10156,0.67383 -0.0348,-0.0304 -0.0599,-0.0988 -0.10547,-0.0918 -0.0924,0.0146 -0.15784,0.10228 -0.24024,0.14648 -0.23694,0.12697 -0.46111,0.28419 -0.71679,0.36719 -0.92335,0.29986 -1.22584,0.24412 -1.89063,0.25391 -0.3229,0.17167 -0.51593,0.27762 -0.85937,0.46093 -0.66531,0.28464 -1.45837,1.33777 -1.9961,0.85352 -0.17603,-0.15853 -0.27633,-0.29322 -0.41406,-0.43945 -0.52815,0.10163 -1.07944,0.17407 -1.67187,0.20703 -0.0558,0.032 -0.11146,0.0636 -0.16993,0.0898 -0.36294,0.16298 -0.74274,0.28689 -1.10937,0.44141 -0.67326,0.28374 -1.33023,0.57795 -1.99219,0.86523 l 36.11156,139.90424 H 337.44103 L 421.9176,-41.5986 h -0.99024 c -1.22562,-3e-5 -0.68982,-0.0683 -1.61914,0.12109 -0.24514,0.10354 -1.24592,0.41882 -1.4082,0.26758 -0.81028,-0.75518 -1.27468,-1.96645 -1.95313,-2.84766 -0.45605,0.0515 -0.79677,0.0481 -1.16015,0.0527 0.5313,0.81894 1.38474,1.89046 1.8457,2.45704 0.23051,0.28337 0.71447,0.1472 1.07226,0.2207 -0.77273,0.1051 -1.56121,-0.0166 -2.33398,0.0488 -0.22326,0.0189 -0.83417,0.16951 -1.08594,0.22851 -0.34396,0.0466 -1.18514,0.19174 -1.58984,0.14844 -0.15552,-0.0166 -0.36624,-0.0573 -0.5625,-0.0918 -0.70645,0.0374 -1.41453,0.0198 -2.1211,0.0156 -0.78119,-10e-4 -1.56255,0.002 -2.34374,0.002 -1.4851,-10e-4 -2.97002,-1e-4 -4.45508,0 -1.30241,0 -2.60581,-1e-5 -3.90821,0 -1.15706,1e-5 -2.31365,0 -3.4707,0 h -2.44141 -3.34765 -3.0586 -0.5625 c -0.0584,0 -0.1732,0.0584 -0.17382,0 -0.003,-0.29377 0.007,-0.47044 0.006,-0.75195 -0.0475,-0.42301 -0.1574,-1.34561 -0.28321,-2.51172 z M 226.38439,141.62014 c -0.0185,-0.021 -0.0222,-0.0314 -0.041,-0.0527 -0.23899,0.0182 -0.47313,0.073 -0.71094,0.10156 -0.1645,0.17341 -0.18205,0.51314 -0.0645,0.98633 0.24951,-0.36496 0.52308,-0.70514 0.8164,-1.03516 z m -0.75195,0.0488 c 0.1823,-0.19218 0.48628,-0.22668 0.81055,-0.17187 -0.0856,-0.0845 -0.16657,-0.16726 -0.27149,-0.25586 -0.0806,0.0335 -0.16147,0.0686 -0.24219,0.10156 -2.45097,0.97954 -5.14726,0.82467 -7.70898,1.25586 0.008,0.0232 0.0136,0.0367 0.0215,0.0606 0.0627,0.1875 -0.51179,0.27278 -0.58789,0.0898 -0.19133,-0.45853 -0.30883,-0.71601 -0.45117,-1.03711 -0.0177,0.38269 -0.0541,0.76056 -0.1875,1.11719 -0.10671,0.28522 -0.60499,0.0787 -0.9043,0.13477 -0.33112,0.062 -0.65751,0.1474 -0.98632,0.2207 -0.62151,0.18676 -1.30092,0.34298 -1.95118,0.20117 -0.20577,-0.0449 -0.3905,-0.1694 -0.5957,-0.2168 -0.0491,-0.0113 0.14703,0.0679 0.11133,0.10352 -0.0511,0.0507 -0.1447,4e-4 -0.2168,0.002 -0.282,0.0422 -0.5621,0.0963 -0.84375,0.14063 -1.27566,0.81051 -2.50359,1.58281 -3.56836,2.21289 0.50437,-0.15319 0.97194,-0.45133 1.48438,-0.55078 1.22627,-0.23801 1.64436,-0.25752 2.80078,-0.375 0.4201,-0.23647 0.99231,-0.0691 1.43555,-0.27149 0.13174,-0.0602 0.173,-0.25279 0.30664,-0.30859 1.48336,-0.61921 1.23126,-0.51606 2.52148,-0.73047 0.27903,-0.01 0.77109,-0.005 1.25,0.0684 0.24605,-0.0709 0.50203,-0.13993 0.69727,-0.18945 0.89318,-0.43374 1.85956,-0.60329 2.82226,-0.82618 1.40801,-0.29375 2.82301,-0.60371 4.25391,-0.77539 z M 362.98986,-42.57321 c 0.0923,-0.0109 0.22155,-0.0258 0.16602,-0.0195 -0.12769,0.014 -0.25518,0.008 -0.38282,0.0176 0.005,-10e-4 0.11379,6e-5 0.2168,0.002 z m 362.4375,6.02734 c -1.65351,2.18179 -3.70145,4.13872 -5.81641,5.99414 5.2e-4,0.002 6.8e-4,0.004 0.002,0.006 1.29524,1.04549 2.56469,2.42609 3.76758,4.15039 2.01959,-1.05626 3.76506,-2.69367 5.55859,-4.22852 -1.54721,-1.77897 -2.80662,-3.76879 -3.51172,-5.92187 z m -5.81641,5.99414 c -0.26275,-0.76831 -0.48322,-1.28143 -0.66406,-1.55664 -0.19582,0.21405 -0.3836,0.43373 -0.57031,0.6543 0.41184,0.26697 0.82282,0.57391 1.23242,0.90429 z m 4.45118,4.18945 c 0.0809,-0.18989 -0.24199,0.30742 -0.35547,0.42969 0.0249,0.0375 0.0513,0.0696 0.0762,0.10742 0.0907,-0.18017 0.20019,-0.3514 0.2793,-0.53711 z m 13.34765,1.46094 c 0.003,0.0285 0.005,0.0531 0.008,0.082 0.0937,0.11345 0.19274,0.2376 0.31835,0.38867 -0.0286,-0.0713 -0.0811,-0.17364 -0.10546,-0.24023 -0.0739,-0.0765 -0.1018,-0.1003 -0.22071,-0.23047 z m 5.16016,9.43359 c 0.16699,0.86193 0.31681,1.72868 0.59766,2.5586 0.20217,0.59757 -0.23032,-1.24298 -0.26172,-1.87305 -10e-4,-0.02 0.0238,0.0464 0.0312,0.0527 -0.11122,-0.25239 -0.22918,-0.50108 -0.36719,-0.73829 z m 3.30273,4.54493 c 0.0451,0.0917 0.043,0.0973 0.0937,0.19922 0.0303,0.0606 -0.0661,-0.14891 -0.0781,-0.1875 -0.005,-0.004 -0.0106,-0.008 -0.0156,-0.0117 z m 3.49805,3.7734297 c 0.35661,0.60706 0.6795,1.2302 0.97656,1.86524 -0.0164,-0.0924 -0.0256,-0.18594 -0.0469,-0.27735 -0.0981,-0.42207 -0.61777,-1.19157 -0.92969,-1.58789 z m -20.09961,4.90625 c 0.0136,0.0134 0.11053,0.0469 0.3125,0.10157 0.10033,0.0272 0.12567,0.0311 0.2207,0.0566 -0.0166,-0.0243 -0.0325,-0.0424 -0.0488,-0.0664 -0.17727,-0.034 -0.50004,-0.10732 -0.48438,-0.0918 z m -12.30078,0.62891 c 0.0325,0.18716 0.0619,0.37333 0.0957,0.56055 7e-5,-0.15773 0.005,-0.3175 0.004,-0.47461 -0.0337,-0.0298 -0.066,-0.0566 -0.0996,-0.0859 z m 31.04687,5.03906 c 0.0626,1.02695 -0.51648,2.33171 0.1875,3.08203 1.36435,1.45418 2.6709,2.60225 3.85352,3.5136803 -0.97234,-1.6572703 -2.15329,-3.7860103 -4.04102,-6.5957103 z m -8.47851,1.82031 c 0.0108,0.0635 0.0226,0.13024 0.0332,0.19336 2.02953,0.1817 2.08718,0.11843 -0.0332,-0.19336 z m 2.78125,3.68165 c 0.0652,0.10639 0.1409,0.20618 0.20312,0.31445 0.35909,0.31741 0.37186,0.32641 0.89844,0.7929703 0.0972,0.0304 0.28659,0.0776 0.44141,0.11914 -0.87943,-0.6586003 -0.92088,-0.7147503 -1.54297,-1.2265603 z m 0.54297,0.98828 c 0.12001,0.2393903 0.25184,0.4719303 0.35742,0.7187503 0.49186,0.25802 0.86525,0.46832 1.10937,0.63476 0.3609,-0.0845 2.64841,1.04145 3.6543,1.44532 0.12125,0.0487 1.47381,0.49356 1.62305,0.54296 2.44412,0.19589 4.98025,0.39856 7.35351,1.10157 0.74692,-0.0304 1.49603,-0.0275 2.2461,0.0215 4.84633,-0.0531 9.6942,-0.0352 14.54101,-0.0332 0.43819,6.9e-4 0.87627,0.002 1.31446,0.002 2.8e-4,-0.20189 0.01,-0.1747 0.0137,-0.27734 -1.26239,-5e-5 -2.52492,3e-4 -3.78711,0 -2.16169,0 -4.32269,-0.002 -6.48438,-0.004 -1.41663,0.0332 -2.83608,0.0219 -4.25195,-0.0391 -3.70394,0.56683 -5.36921,0.23521 -6.78125,-1.42969 -4.34045,0.46451 -1.35262,1.39417 -5.91601,-0.45703 -0.1749,-0.11334 -0.5425,-0.1777 -0.4961,-0.38086 0.007,-0.0311 0.0705,-0.0249 0.125,-0.0156 -0.73195,-0.19797 -1.54268,-0.20461 -2.1914,-0.59374 -0.35254,-0.21151 -0.79152,-0.52257 -1.25,-0.86133 -0.29963,-0.0723 -0.78701,-0.25686 -1.17969,-0.3750003 z m 14.74414,2.4746103 c -0.70965,0.01 -1.17812,0.0433 -1.73828,0.0684 0.29874,0.15369 0.58829,0.31153 0.8125,0.41601 0.77216,-0.22754 1.42076,-0.49115 0.92578,-0.48437 z m 4.31445,1.43554 c -0.3185,0.0591 -0.53158,0.074 -0.82422,0.12305 0.15172,-0.0129 0.30386,-0.0212 0.45508,-0.0391 0.12498,-0.0148 0.49288,-0.1068 0.36914,-0.084 z m 13.21094,0.2461 c 0.0113,0.10377 0.0199,0.10902 0.0332,0.27734 0.058,5e-5 0.11588,-5e-5 0.17383,0 0.20339,-0.0975 0.40899,-0.18783 0.61523,-0.27734 -0.27406,-1.1e-4 -0.54817,10e-6 -0.82226,0 z m -49.21875,0.56054 c -0.002,0.0443 -0.003,0.0886 -0.004,0.13282 0.0212,0.008 0.0545,0.0231 0.0762,0.0312 -0.0199,-0.0604 -0.0328,-0.10156 -0.0469,-0.14649 -0.008,-0.006 -0.0169,-0.0117 -0.0254,-0.0176 z m 0.0723,0.16407 c 0.0643,0.19561 0.10595,0.33165 0.15039,0.47461 0.3003,0.18711 0.59939,0.37469 0.88672,0.56054 0.0472,0.0133 0.0334,0.003 0.0801,0.0156 -0.22685,-0.34463 -0.4941,-0.64628 -0.80664,-0.91407 -0.0788,-0.0309 -0.23644,-0.10845 -0.31055,-0.13671 z m -0.0762,-0.0312 c -0.17201,-0.065 -0.20818,-0.0546 -0.35156,-0.10352 0.059,0.11928 0.11848,0.23281 0.17773,0.35742 0.0574,0.0349 0.10751,0.0688 0.16407,0.10352 0.003,-0.11918 0.008,-0.23844 0.01,-0.35742 z m 1.08789,0.47656 c 0.0942,0.2058 0.1807,0.41841 0.25977,0.63672 1.24646,0.3282 2.94318,0.80044 2.19726,0.44336 -1.08068,-0.51736 -1.74453,-0.78361 -2.45703,-1.08008 z m -0.29492,2.22461 c 0.0653,0.2137 0.12646,0.42936 0.18359,0.65039 0.0618,0.0192 0.10548,0.0327 0.16407,0.0508 -0.0694,-0.22102 -0.14275,-0.45145 -0.2168,-0.6875 -0.0451,-0.003 -0.0855,-0.0107 -0.13086,-0.0137 z M 242.1305,39.26863 c -0.0809,-0.0151 -0.2364,0.0637 -0.30274,0.0625 0.40672,0.0772 0.81198,0.20721 1.22266,0.17578 0.31593,-0.0242 -0.60844,-0.18018 -0.91992,-0.23828 z m -3.46875,2.16016 c 0.91733,1.55278 0.98107,2.00129 1.02343,2.10937 0.11036,-0.0693 0.23332,-0.13768 0.30664,-0.20703 0.30092,-0.28459 0.61927,-0.54703 0.9336,-0.81445 -0.7994,-0.27211 -1.65854,-0.46633 -2.20508,-1.06836 -0.0235,-0.009 -0.0348,-0.0108 -0.0586,-0.0195 z m 0.83789,2.5039 c -0.0971,0.0501 -0.19253,0.10324 -0.28907,0.1543 0.0378,0.0142 0.0784,0.0255 0.11719,0.0391 0.10163,-0.079 0.12176,-0.087 0.2168,-0.16015 -0.014,-0.0123 -0.0285,-0.024 -0.0449,-0.0332 z m -1.32618,0.70313 c -0.17326,0.0967 -0.35234,0.18209 -0.52539,0.2793 -0.099,0.0574 -0.19983,0.1109 -0.29687,0.17187 0.0365,-0.009 0.0729,-0.0184 0.10937,-0.0273 0.0149,-0.008 0.03,-0.0175 0.0449,-0.0254 0.29087,0.0853 0.4857,-0.14201 0.66796,-0.39844 z m 543.60547,0.86133 c 0.46308,-0.2343 0.0866,-0.22822 -2.58398,0.7168 0.043,0.003 0.0859,0.007 0.1289,0.01 0.6894,-0.0178 1.99201,-0.49226 2.45508,-0.72656 z m -2.45508,0.72656 c -0.003,8e-5 -0.009,0.002 -0.0117,0.002 -0.0405,8.3e-4 -0.0546,-0.005 -0.1211,-0.01 -0.28114,0.0995 -0.45141,0.15356 -0.67578,0.23047 1.1353,0.62216 0.62361,0.74388 1.94922,0.0742 0.46805,-0.0443 0.93441,-0.13417 1.4043,-0.13477 -0.10798,-0.005 -0.21631,0.01 -0.32422,0.002 -0.74043,-0.0543 -1.48025,-0.11004 -2.22071,-0.16406 z m -0.13281,-0.008 c 0.002,-6.1e-4 0.002,-6.9e-4 0.004,-0.002 -0.10809,-0.008 -0.21612,-0.0156 -0.32422,-0.0234 -0.10684,-0.008 0.14449,0.0132 0.32031,0.0254 z m 5.13672,0.16211 c -0.76651,0.0294 -1.53308,0.0338 -2.29883,0.008 1.07467,0.0121 1.6068,0.0283 2.28516,0.043 z m -534.47265,2.04101 c -1.18055,0.35099 -2.47572,0.72972 -3.44336,1.03125 0.72448,0.1898 1.19943,0.30512 1.49023,0.38282 0.0396,-0.0135 0.0853,-0.0276 0.125,-0.041 0.26405,-0.13804 0.83457,-0.46175 1.03906,-0.56445 0.0484,-0.0243 0.0925,-0.0444 0.14063,-0.0684 0.16312,-0.18559 0.52557,-0.59415 0.64844,-0.74024 z m -8.23829,3.50391 c -0.39302,0.01 -0.78662,0.0165 -1.17968,0.0273 -1.11814,0.5241 -2.25711,1.05061 -3.57227,1.68946 -0.61904,0.3007 -1.02044,0.50271 -1.45898,0.72461 2.40364,-0.91173 4.63004,-1.72916 6.56054,-2.4375 -0.11666,0.002 -0.23291,-0.007 -0.34961,-0.004 z m -12.80078,0.0644 c -0.073,0.0167 -0.045,0.008 -0.1289,0.0274 -0.0515,0.0122 0.1057,-0.0135 0.1582,-0.0195 -0.0192,-0.0107 -0.0163,10e-4 -0.0293,-0.008 z m -9.96289,0.32227 c -0.0706,0.0386 -0.13855,0.0821 -0.20898,0.12109 0.058,-0.009 0.11573,-0.0189 0.17187,-0.0352 0.065,-0.0189 0.1273,-0.0465 0.19141,-0.0684 -0.0572,-0.0107 -0.0915,-0.005 -0.1543,-0.0176 z m 5.57031,1.15234 c -0.0691,0.003 -0.0709,-0.001 -0.14843,0.004 -0.0493,0.003 0.099,0.005 0.14843,0.006 0.004,-0.006 -0.003,-0.004 0,-0.01 z m -15.19335,1.45313 c -0.12559,0.18461 -0.15679,0.21389 -0.23438,0.33398 0.0488,-0.006 0.0976,-0.0117 0.14648,-0.0176 0.0366,-0.10614 0.0585,-0.21083 0.0879,-0.3164 z m 1.6582,0.006 c -0.0876,0.0472 -0.23638,0.12307 -0.17383,0.0996 0.0339,-0.0126 0.0663,-0.0291 0.0996,-0.043 0.025,-0.0185 0.0495,-0.0377 0.0742,-0.0566 z m 41.8457,2.96679 c -0.0248,0.0119 -0.044,0.0215 -0.0684,0.0332 l -0.0117,0.0117 c 0.0255,-0.0184 0.0544,-0.0268 0.0801,-0.0449 z m -69.58398,2.16992 c -0.17377,-0.10095 -0.24976,-0.0405 -0.26563,0.10938 0.0425,4.5e-4 0.0867,0.0148 0.12891,0.0117 0.0848,-0.006 0.16794,-0.0275 0.25195,-0.041 -0.0536,-0.0318 -0.0589,-0.0473 -0.11523,-0.0801 z m 18.6582,0.19336 c -0.15263,0.0291 -0.26415,0.10447 -0.33008,0.22852 0.0102,3.9e-4 0.0148,0.008 0.0254,0.008 0.17843,-5.6e-4 0.27139,-0.0818 0.33399,-0.1914 -0.01,-0.0151 -0.0199,-0.0293 -0.0293,-0.0449 z m 490.17773,5.75977 -0.14453,0.56836 c 0.22648,0.13766 0.50513,0.30021 0.69532,0.41992 -0.23108,-0.3982 -0.34032,-0.61988 -0.55079,-0.98828 z m 0.55079,0.98828 c 0.0122,0.021 0.0209,0.0394 0.0332,0.0605 0.0509,0.0174 0.10106,0.0363 0.15234,0.0527 -0.0521,-0.0332 -0.13009,-0.0784 -0.18554,-0.11328 z m 0.0332,0.0605 c -0.15058,-0.0514 -0.30312,-0.0972 -0.44922,-0.16016 -0.0759,-0.0327 -0.20155,-0.13609 -0.30859,-0.20508 l -0.33594,1.3125 c 0.3977,-0.25704 0.79696,-0.51255 1.20117,-0.75976 -0.035,-0.0611 -0.069,-0.12135 -0.10742,-0.1875 z m -522.16797,0.88086 c -0.0877,0.0186 -0.13452,0.024 -0.20703,0.0391 0.004,0.004 0.0101,0.008 0.0137,0.0117 0.005,-2.5e-4 0.009,2.3e-4 0.0137,0 0.0593,-0.0167 0.23999,-0.0636 0.17969,-0.0508 z m -0.21875,0.043 c -0.0202,0.004 -0.0394,0.006 -0.0586,0.01 0.0256,-10e-4 0.0483,2.1e-4 0.0762,-0.002 -0.006,-0.003 -0.0119,-0.005 -0.0176,-0.008 z m 0.041,0.0215 c 0.0766,0.0774 0.19331,0.16629 0.2871,0.25 0.0625,0.0259 0.076,0.0328 0.0293,0.0254 0.0681,0.06 0.13934,0.1191 0.20508,0.17774 0.0252,-0.0384 0.053,-0.0749 0.0781,-0.11329 -0.20161,-0.11123 -0.39523,-0.2341 -0.5996,-0.33984 z m -0.40235,0.0449 c -0.0188,0.002 -0.0328,-3.1e-4 -0.0508,0.002 l 0.3457,1.33789 c 0.0197,-0.0159 0.0266,-0.0334 0.0391,-0.0508 0.0945,-0.13137 0.1808,-0.26838 0.27148,-0.40235 -0.0583,-0.0663 -0.097,-0.0752 -0.16211,-0.14844 -0.23905,-0.25215 -0.37524,-0.40445 -0.44336,-0.73828 z m 5.28516,1.20703 c -0.0508,0.0145 -0.10154,0.0326 -0.15235,0.0469 0.19839,0.30403 0.2688,0.3941 0.45118,0.76562 0.0367,0.0751 0.0781,0.14778 0.11523,0.22266 0.7785,-0.35331 1.58605,-0.65473 2.38672,-0.96875 -0.5501,0.0113 -1.10036,0.0321 -1.65039,0.0352 -0.15965,0.19877 -0.44255,0.10774 -0.75195,-0.0449 -0.14409,-0.0106 -0.2855,-0.0214 -0.39844,-0.0566 z m -0.49414,0.15039 c -0.0357,0.0108 -0.0717,0.02 -0.10742,0.0312 0.042,0.0692 0.0565,0.15837 0.11328,0.2168 0.06,0.0617 -0.0122,-0.18795 -0.006,-0.24805 z m -2.01367,2 c -0.0796,0.0743 -0.0678,0.0609 -0.30274,0.29688 -1.24667,0.30737 -1.42279,0.41764 -1.63281,-0.19336 l 0.36914,1.43164 c 0.55051,-0.44136 1.1389,-0.82856 1.73828,-1.19922 -0.0516,-0.10346 -0.10743,-0.20472 -0.1582,-0.30859 -0.004,-0.009 -0.009,-0.0181 -0.0137,-0.0273 z m 524.56054,2.6836 c 0.0614,0.0775 0.0821,0.10591 0.13867,0.17773 0.0264,0.011 0.0537,0.0202 0.0801,0.0312 -0.0741,-0.0681 -0.14363,-0.1423 -0.21875,-0.20898 z m -437.88672,2.04297 c -1.53123,0.71272 -3.59906,1.67163 -4.91601,2.28711 -0.0116,0.0255 -0.0151,0.0507 -0.0274,0.0762 -0.0447,0.0929 -0.15185,0.22494 -0.23828,0.34375 0.95651,-0.19262 1.93986,-0.39268 2.42578,-0.44531 0.25674,-0.0278 0.50833,-0.0187 0.75977,-0.004 0.78819,-0.28647 1.5817,-0.54083 2.36914,-0.80078 z m 446.37696,1.84961 c -0.0263,0.004 -0.052,0.008 -0.0781,0.0117 0.0625,0.0223 0.12503,0.0442 0.1875,0.0664 -0.0386,-0.0277 -0.0698,-0.0498 -0.10937,-0.0781 z m 1.37304,0.98828 c -0.11482,0.0144 -0.22859,0.0333 -0.34375,0.0449 0.23529,0.16316 0.46542,0.23837 0.75586,0.26562 -0.14152,-0.10623 -0.24376,-0.18624 -0.41211,-0.31054 z m -1.69531,0.0957 c 0.12152,0.0641 0.24259,0.12819 0.37305,0.17383 0.17119,0.0599 0.46624,0.1125 0.72461,0.16797 -0.18602,-0.10221 -0.41402,-0.21089 -0.64258,-0.33594 -0.15212,0.004 -0.30336,-0.003 -0.45508,-0.006 z m -448.91992,2.96484 c -0.40111,0.15066 -1.04557,0.3936 -1.49414,0.56055 0.0616,-5e-5 0.0656,0.14758 0.10547,0.18164 0.46265,-0.24788 0.92468,-0.4969 1.38867,-0.74219 z m -2.64258,0.99024 c -0.37669,0.14128 -0.544,0.20124 -1.01758,0.38086 0.12626,-0.0129 0.2526,-0.0249 0.37891,-0.0371 0.21339,-0.11389 0.42169,-0.236 0.63867,-0.34375 z m -65.24609,0.82617 c 0.007,0.12334 0.0287,0.21074 0.0273,0.35352 0.21429,-0.0988 0.42831,-0.19807 0.64258,-0.29688 -0.13661,0.0421 -0.27374,0.0824 -0.41016,0.125 -0.0675,-0.0653 -0.18123,-0.11905 -0.25976,-0.18164 z m 57.48242,3.3418 c -0.81581,0.0807 -1.70143,0.16964 -1.75977,0.17187 0.0851,0.19692 0.10427,0.44857 0.0937,0.7168 0.4802,-0.26917 0.97032,-0.51807 1.45508,-0.77734 0.16424,-0.0864 0.0696,-0.0369 0.21094,-0.11133 z m -6.80078,0.48437 c -0.10809,0.007 -0.26602,0.0195 -0.38086,0.0274 -0.80107,0.47553 -1.60179,0.93178 -2.41406,1.36718 -0.16966,0.10418 -0.20164,0.12328 -0.37305,0.22852 -0.01,0.0311 -0.0167,0.0634 -0.0273,0.0937 0.028,0.052 0.0528,0.10379 0.0781,0.15625 0.42719,-0.14815 0.85397,-0.29741 1.28125,-0.44531 0.71606,-0.24786 1.42516,-0.62582 2.13477,-1.00586 -0.12733,-0.14165 -0.22322,-0.28162 -0.29883,-0.42188 z m 23.04687,0.0645 c -0.50713,0.20863 -1.00719,0.42255 -1.46289,0.67382 -0.20895,0.11521 -0.41987,0.22675 -0.6289,0.3418 0.0767,0.0108 0.13827,0.0233 0.21679,0.0352 0.7438,-0.38863 1.41046,-0.73152 1.88867,-0.99805 z m -3.62695,1.84961 c -0.19237,0.10544 -0.38579,0.20911 -0.57812,0.31445 0.0839,0.01 0.16819,0.0164 0.25195,0.0273 0.0735,-0.0417 0.14158,-0.0762 0.21484,-0.11719 0.0147,-0.0291 0.0283,-0.0588 0.043,-0.0879 0.0229,-0.0455 0.0469,-0.0903 0.0684,-0.13671 z m 2.99609,0.96289 c -0.0354,0.0725 -0.0757,0.14248 -0.11132,0.21484 0.0788,-0.002 0.14696,-0.28777 0.11132,-0.21484 z m 1.43555,0.33007 c -0.82709,0.45997 -1.25717,0.69206 -1.84961,1.00196 0.26538,0.47431 -0.17112,1.33794 -0.89453,2.26367 0.16597,-0.003 0.28839,0.003 0.42969,0.006 1.10693,-0.49281 1.81799,-0.82176 2.82617,-1.27344 z m 463.03711,0.28125 c 0.0604,0.0437 0.1321,0.1083 0.18164,0.13282 0.1565,0.0775 0.20926,0.10657 0.35156,0.17773 -0.10569,-0.10257 -0.21216,-0.20462 -0.31836,-0.30664 -0.0718,-1.3e-4 -0.1432,-0.002 -0.21484,-0.004 z m 1.625,0.42579 c -0.0629,0.0367 0.71363,0.81963 1.09375,0.89453 0.0882,0.0174 0.1609,0.0245 0.24805,0.041 -0.41046,-0.31616 -0.8238,-0.62816 -1.25977,-0.90234 -0.0469,-0.0295 -0.0731,-0.0384 -0.082,-0.0332 z m 5.85937,1.13281 c -0.0698,0.0106 -0.11954,0.0225 -0.18554,0.0332 -0.0656,0.0356 -0.13229,0.0909 -0.19727,0.11719 0.2878,-0.0897 0.56203,-0.17753 0.38281,-0.15039 z m -1.26953,0.22851 c -0.0453,0.009 -0.0924,0.0167 -0.13867,0.0254 0.16281,0.017 0.3222,0.0327 0.47852,0.0469 0.0395,-0.009 0.0906,-0.0151 0.13086,-0.0234 -0.15965,0.0182 -0.31536,-0.0147 -0.47071,-0.0488 z m 14.08594,0.14063 c -0.0822,0.0414 1.35361,0.82401 1.85547,1.15039 0.71528,0.12417 0.82841,0.13166 1.33008,0.20898 -1.00239,-0.48105 -2.00238,-0.96746 -3.05078,-1.32812 -0.0809,-0.0278 -0.12303,-0.0372 -0.13477,-0.0312 z m 10.36914,1.3789 c -0.0658,0.0246 1.23202,0.76167 1.75195,0.9043 0.0695,0.0191 0.18482,0.0283 0.26758,0.0449 -0.62687,-0.31969 -1.25203,-0.64474 -1.90039,-0.91211 -0.0712,-0.0294 -0.10975,-0.0406 -0.11914,-0.0371 z m 9.3418,1.82227 c -0.38889,-0.04 0.76622,0.15798 1.1543,0.20508 0.0123,0.001 0.15568,-0.005 0.21289,-0.006 -0.45504,-0.0734 -0.90889,-0.15212 -1.36719,-0.19922 z m -540.3125,1.83203 c -1.09756,0.35248 -2.19352,0.70988 -3.29102,1.0625 -0.62502,0.3191 -1.25117,0.63571 -1.87695,0.95313 0.70783,-0.26139 0.90706,-0.35229 1.95703,-0.73438 0.79141,-0.28799 1.57265,-0.62714 2.36914,-0.9043 0.27546,-0.12343 0.59316,-0.2656 0.8418,-0.37695 z m 36.52734,5.45117 c -0.56971,0.40748 -1.13856,0.81617 -1.70898,1.22266 0.45831,-0.13781 0.6947,-0.2105 1.11328,-0.33594 0.77707,-1.15553 0.20147,-0.29964 0.5957,-0.88672 z m -5.44531,7.44532 c -1.03115,0.51736 -2.21447,1.09874 -3.80859,1.84179 -0.9592,0.4471 -1.93412,0.85781 -2.90235,1.28516 -0.24631,0.20521 -0.46254,0.37381 -0.70703,0.57617 0.88038,-0.24436 2.28113,-0.63115 2.87109,-0.79492 1.14653,-0.63823 2.97081,-1.65685 4.00391,-2.23438 0.16435,-0.2065 0.39309,-0.48291 0.54297,-0.67382 z m -19.83984,2.89843 c -0.25861,0.13591 -0.64392,0.34218 -0.90821,0.48438 0.32717,-0.10901 0.65325,-0.22124 0.98047,-0.33008 -0.0304,-0.0521 -0.055,-0.10333 -0.0723,-0.1543 z m 5.88867,1.49024 c -0.26054,0.0863 -0.52072,0.17349 -0.78125,0.25976 -0.3806,0.23644 -0.76956,0.46243 -1.12696,0.73243 -0.50751,0.38336 0.84039,-0.13819 1.70508,-0.42579 0.0648,-0.19089 0.13319,-0.37892 0.20313,-0.5664 z m -4.27539,1.42383 c -0.10492,0.0349 -0.20955,0.0706 -0.31446,0.10546 0.003,0.0266 0.0108,0.0451 0.0137,0.0723 0.0457,0.42594 -0.43551,0.69576 -0.77735,1.00586 1.49495,-0.41455 1.57929,-0.43686 3.03907,-0.8418 -0.1785,-0.0271 -0.3175,-0.0429 -0.48438,-0.0625 -0.34705,0.18757 -0.64257,0.1955 -0.84961,-0.10742 -0.23817,-0.0378 -0.44302,-0.097 -0.62695,-0.17187 z m 19.38281,0.11132 c -0.47209,0.16684 -0.92658,0.32967 -1.39453,0.4961 -0.12951,0.12037 -0.24543,0.25455 -0.37305,0.37695 0.24923,-0.0628 0.80298,0.006 1.125,-0.008 0.21215,-0.22388 0.26506,-0.27899 0.47461,-0.5 0.009,-0.0222 0.006,-0.0146 0.0156,-0.0371 0.0468,-0.11114 0.10474,-0.21729 0.15234,-0.32813 z m -47.94922,1.58204 c -0.0715,0.0179 -0.14337,0.0347 -0.21484,0.0527 -0.0811,0.0358 -0.15958,0.0774 -0.24024,0.11328 -1e-5,0.0196 8e-5,0.039 0,0.0586 0.15297,-0.0723 0.30198,-0.15265 0.45508,-0.2246 z m 60.30664,0.95117 c -0.2434,0.16726 -0.29487,0.21291 -0.58008,0.39453 -0.78753,0.67285 -1.56637,1.35513 -2.34765,2.03515 1.0953,-0.40526 2.20404,-0.74407 3.35156,-0.77539 z m -23.35547,1.70507 c -0.23461,0.24038 -0.47003,0.47988 -0.70703,0.7168 0.11105,0.0229 0.22112,0.0368 0.33203,0.0586 0.28704,-0.11425 0.53933,-0.21439 0.83008,-0.33008 -0.15256,-0.15129 -0.32655,-0.32413 -0.45508,-0.44532 z m 24.57227,3.04493 c -0.1973,0.11013 -0.43862,0.12091 -0.64649,0.20703 0.18943,0.3348 0.38102,0.68027 0.68946,1.19531 0.0755,-0.06 0.15888,-0.11255 0.23242,-0.17383 0.0159,0.008 0.0311,0.0174 0.0469,0.0254 z m -64.93359,0.54883 c -0.1232,0.0798 -0.24593,0.16044 -0.36915,0.24023 0.16816,-0.0414 0.34821,-0.0584 0.50977,-0.11328 0.0772,-0.0227 0.15145,-0.0532 0.22852,-0.0762 -0.1212,-0.0224 -0.24723,-0.0306 -0.36914,-0.0508 z m 41.73437,0.27929 c -0.49134,0.14986 -1.44433,0.45818 -2.35937,0.74805 -0.6144,0.5448 -1.16238,0.81455 -1.5586,0.49219 -0.10371,0.0331 -0.15566,0.0494 -0.25781,0.082 -2.8e-4,0.0153 -0.006,0.0254 -0.006,0.041 -0.0806,0.0103 -0.12758,0.0171 -0.20703,0.0274 -0.37548,0.11994 -0.63872,0.20034 -0.96485,0.30468 0.0277,0.0738 0.0603,0.1526 0.084,0.22266 0.18416,0.19352 0.23568,0.62596 0.32031,0.99805 1.79702,-1.03386 3.47859,-2.02571 4.94922,-2.91602 z m -3.91797,1.24024 c 0.62656,-0.1999 0.95427,-0.30078 1.5586,-0.49219 0.13754,-0.12198 0.28519,-0.29055 0.42773,-0.4336 -0.69166,0.27392 -1.38279,0.5496 -2.07422,0.82422 0.0297,0.032 0.0566,0.0761 0.0879,0.10157 z m -21.13281,-1.09766 c -0.004,0.001 -0.008,0.003 -0.0117,0.004 0.008,-2.4e-4 0.0156,2.4e-4 0.0234,0 -0.004,-0.001 -0.008,-0.003 -0.0117,-0.004 z m 44.24219,0.22266 c -0.0988,0.0207 -0.19472,0.0481 -0.29297,0.0703 -0.0452,0.0982 -0.17115,0.29495 -0.17578,0.34375 0.1866,-0.16438 0.29197,-0.25801 0.46875,-0.41406 z m -1.45508,0.35547 c -0.0836,0.0286 -0.17737,0.0311 -0.25977,0.0625 -0.22067,0.0842 -0.11311,0.0611 -0.31445,0.13867 0.14611,0.2547 0.2941,0.50721 0.47461,0.72461 0.11098,-0.071 0.22812,-0.13221 0.33789,-0.20508 0.003,-0.002 0.0746,-0.0663 0.082,-0.0723 -0.0713,-0.18922 -0.14578,-0.39729 -0.19531,-0.51562 -0.0238,-0.0569 -0.0777,-0.0929 -0.125,-0.13281 z m -53.69336,2.5664 c -0.23149,0.14067 -0.46212,0.28274 -0.69336,0.42383 0.48038,-0.0689 0.85832,-0.11518 1.35352,-0.1875 0.22692,-0.0777 0.45444,-0.1535 0.68164,-0.23047 -0.0788,-4e-4 -0.15756,-0.002 -0.23633,-0.002 -0.36824,0.001 -0.73713,-0.003 -1.10547,-0.004 z m 42.89648,0.50781 c 0.0133,0.0652 -0.10859,0.0896 -0.16211,0.13477 0.0539,-0.0451 0.10818,-0.0897 0.16211,-0.13477 z m -2.83593,0.67188 c -0.17813,0.0488 -0.33834,0.092 -0.51563,0.14062 0.0337,0.0193 0.0818,0.0516 0.11719,0.0723 0.13298,-0.0706 0.26555,-0.14209 0.39844,-0.21289 z m 9.17578,0.49414 c -0.005,10e-4 -0.0106,0.003 -0.0156,0.004 -0.0154,0.006 -0.0192,0.009 -0.0351,0.0156 -0.0171,0.007 0.0337,-0.0135 0.0508,-0.0195 z m -61.40039,0.0371 c -0.22077,0.0499 -0.44141,0.10029 -0.66211,0.15039 0.24147,-0.0243 0.48296,-0.0477 0.72461,-0.0703 -0.0216,-0.0264 -0.0442,-0.0521 -0.0625,-0.0801 z m 49.5625,0.19531 c -0.001,3.8e-4 -0.003,0.002 -0.004,0.002 0.003,-0.003 -0.0223,0.0358 -0.0156,0.0273 0.008,-0.01 0.0116,-0.0193 0.0195,-0.0293 z m 17.23242,1.55078 c -0.16679,0.10599 -0.33678,0.21626 -0.49805,0.32227 -0.0502,0.0327 -0.0506,0.031 -0.0957,0.0605 0.0667,0.0178 0.14378,0.0256 0.20312,0.0508 0.32916,-0.16614 0.44236,-0.2222 0.58789,-0.29688 -0.0839,-0.0572 -0.11856,-0.0831 -0.19726,-0.13672 z m -23.45117,0.75391 c -0.12809,0.035 -0.24117,0.0685 -0.41602,0.11523 -0.28436,0.17286 -0.65898,0.123 -0.95312,0.27344 -0.0525,0.0268 -0.0876,0.0777 -0.12696,0.12305 0.52405,-0.16186 1.03539,-0.33375 1.4961,-0.51172 z m 8.21875,0.82617 c -0.48061,0.25471 -0.9577,0.51572 -1.43555,0.77539 -0.0653,0.0666 -0.13525,0.12954 -0.19922,0.19727 -0.0567,0.0504 -0.091,0.0792 -0.13867,0.12109 0.18448,-0.0558 0.25165,-0.0965 0.79297,-0.20898 0.14589,-0.0392 0.28272,-0.077 0.42383,-0.11719 0.19794,-0.20586 0.3919,-0.41532 0.58789,-0.62305 -0.0118,-0.0546 -0.0217,-0.10176 -0.0312,-0.14453 z m -39.9375,1.38281 c -0.62454,0.15231 -1.30232,0.30261 -1.88477,0.45313 0.009,0.12544 0.007,0.24514 0.0176,0.37109 0.71236,-0.31466 1.15932,-0.51158 1.86719,-0.82422 z m 44.33789,0.98633 c -0.0803,0.0445 -0.16192,0.0864 -0.24219,0.13086 -0.01,0.32154 -0.10663,0.57372 -0.27539,0.73242 0.0686,0.0136 0.11413,0.0275 0.18555,0.041 0.44309,0.084 0.44267,-0.34631 0.33203,-0.9043 z m -46.11524,0.25195 c -0.0234,0.006 -0.0469,0.0117 -0.0703,0.0176 9e-5,0.003 -9e-5,0.005 0,0.008 0.0235,-0.009 0.0468,-0.0172 0.0703,-0.0254 z m 45.02344,0.34571 c -0.0597,0.0329 -0.11998,0.0648 -0.17969,0.0976 0.0756,0.018 0.16217,0.0368 0.24219,0.0547 -0.018,-0.0459 -0.0424,-0.10413 -0.0625,-0.15234 z m -64.10352,1.00586 c -1.25659,0.1701 -1.95028,0.26352 -3.27539,0.44336 l 0.0352,0.13281 c 0.96027,-0.13719 1.96985,-0.29129 2.97656,-0.43164 0.0878,-0.0483 0.17587,-0.0962 0.26367,-0.14453 z m 26.89258,3.56836 c -0.10233,0.0255 -0.20369,0.0551 -0.30664,0.0781 0.11371,0.27419 0.24203,0.61001 0.37891,1.00391 -0.0213,-0.36121 -0.0477,-0.72158 -0.0723,-1.08203 z" />
        <path
           id="text36580"
           style="font-style:normal;font-weight:normal;font-size:96px;line-height:1.25;font-family:sans-serif;white-space:pre;shape-inside:url(#rect36582);fill:#cccccc;fill-opacity:1;stroke:none;stroke-width:5.65192"
           d="m 1129.6148,-303.15275 -88.5983,475.00021 h 42.5373 l 9.5659,-51.28426 c 5.0945,20.35138 13.4563,35.51194 25.0853,45.48411 11.8202,9.76866 27.1565,14.65291 46.0105,14.65291 31.27,0 59.7136,-16.48457 85.3302,-49.4538 25.7698,-32.96923 43.6653,-76.31625 53.6865,-130.0438803 10.0213,-53.7276597 8.2974,-97.0765197 -5.1737,-130.0457397 -13.3176,-32.96923 -35.612,-49.45381 -66.882,-49.45381 -18.854,0 -36.0324,4.98581 -51.5347,14.95799 -15.311,9.76865 -29.3093,24.82951 -41.9957,45.18088 l 34.5044,-184.99461 z m 588.6122,0 -88.5983,475.00021 h 42.3067 l 88.5966,-475.00021 z M 832.86138,-284.61531 778.88301,0.59977967 c 1.39249,-0.36677 2.44293,-0.67207 3.91223,-0.86901 0.43156,-0.0578 1.14625,-0.54501 1.3025,-0.0702 0.0351,0.10645 0.0601,0.21635 0.0931,0.32357 0.62607,-0.0387 1.2484,-0.0321 1.89613,-0.0204 0.87803,-0.0199 1.75679,-0.0118 2.63499,-0.0111 1.43257,0.003 2.86489,0.003 4.29745,0.002 1.83943,9e-5 3.67843,3.8e-4 5.51786,0 1.10938,-1.7e-4 2.2187,-6e-5 3.32808,0 0.67542,-3e-5 1.35174,-1e-5 2.02716,0 0.62475,-0.5046 0.64704,-0.49988 2.46448,-0.56023 0.35239,0.0267 0.31195,0.0258 0.45311,0.0351 0.33128,-0.24927 0.54362,-0.21966 2.38555,-0.60830997 -0.85907,-0.4989 0.15609,-0.21291 1.19356,0.14607 0.82767,-0.0254 1.65705,-0.009 2.48501,-0.009 0.37603,-0.002 0.75122,-0.002 1.12725,-0.002 0.18631,5e-5 0.37258,-3e-5 0.55889,0 0.27542,4e-5 1.31631,1e-5 1.39722,0 0.2015,-2e-5 0.74049,-0.0531 0.74519,-0.0222 0.10791,-0.11833 0.36106,-0.33132 0.55415,-0.44929 0.12776,-0.10548 0.25508,-0.2121 0.38364,-0.31617 0.14935,-0.0342 0.37612,-0.10948 0.59994,-0.18305 0.32677,-0.22021 0.65787,-0.42852 1.01043,-0.58242 0.18463,-0.0806 0.36939,-0.13173 0.55415,-0.16825 0.0619,-0.0406 0.11786,-0.0923 0.18156,-0.12943 0.32802,-0.19105 0.65068,-0.29609 0.97253,-0.35684 0.11471,-0.14241 0.71832,-0.66849 1.00727,-0.73219 0.006,-0.002 0.0138,-1.9e-4 0.0205,-0.002 0.26498,-0.20569 0.53423,-0.40326 0.8257,-0.54914 0.9327,-0.46681 1.54106,-0.49486 2.24819,-0.41787 0.0461,-0.0332 0.0972,-0.0821 0.14211,-0.11093 0.38703,-0.24909 0.81909,-0.36321 1.26303,-0.43635 l 7.40445,-39.6987597 h 163.4769 l 9.67948,-51.89626 H 843.54992 l 25.1674,-134.93066 h 170.60508 l 9.6796,-51.89441 z M 821.987,-3.9856103 c -0.31678,0.24589 -0.62824,0.50305 -0.95832,0.72108 0.0137,-0.002 0.0273,-0.006 0.0411,-0.008 0.3406,-0.24245 0.68098,-0.48585 1.02148,-0.72849 -0.0345,0.006 -0.0699,0.008 -0.1042,0.0148 z m -0.95832,0.72108 c -0.0232,0.004 -0.0462,0.009 -0.0694,0.013 -0.0345,0.0429 -0.0299,0.0536 0.0474,0.004 0.007,-0.005 0.0145,-0.0116 0.0221,-0.0167 z m -3.77172,1.74911 c -0.19875,0.16408 -0.39808,0.32765 -0.59678,0.49182 0.006,-0.009 0.0286,-0.0267 0.0379,-0.037 -0.005,0.005 -0.0145,0.009 -0.0379,0.0167 -0.0844,0.027 -0.12505,0.0337 -0.20209,0.0574 0.0643,-0.0102 0.13246,-0.0221 0.20051,-0.0333 v -0.002 h 0.002 c 0.0306,-0.005 0.0587,-0.01 0.09,-0.0148 0.34759,-0.19185 0.67926,-0.42249 1.01042,-0.65453 -0.13272,0.0319 -0.26775,0.055 -0.39312,0.10724 -0.0289,0.012 -0.0737,0.0459 -0.11051,0.0685 z M 1506.6287,-178.29701 c -36.9415,0 -68.8728,15.87335 -95.7943,47.6215 -26.7684,31.74814 -45.3918,75.70814 -55.8685,131.8780497 -10.4388,55.9662703 -8.2152,99.9245303 6.6719,131.8761903 15.0783,31.74814 41.0884,47.62149 78.0299,47.62149 36.7882,0 68.6438,-15.87335 95.5654,-47.62149 26.9596,-31.95166 45.6586,-75.90993 56.0974,-131.8761903 10.4768,-56.1698097 8.1759,-100.1299097 -6.9024,-131.8780497 -15.0783,-31.74815 -41.0112,-47.6215 -77.7994,-47.6215 z m 409.4989,0 c -13.7955,0 -28.3543,2.03495 -43.6754,6.10522 -15.2833,3.86676 -31.4056,9.7685 -48.3677,17.70553 l -9.6796,51.89626 c 14.6221,-9.36163 29.343,-16.3824 44.165,-21.06321 14.822,-4.68081 29.5917,-7.0223 44.307,-7.0223 23.1459,0 39.7515,7.12417 49.817,21.37013 10.2567,14.04245 12.9737,33.98578 8.1529,59.83195 l -1.0247,5.49507 h -59.3212 c -38.4744,0 -69.2667,9.7685 -92.378,29.30582 -22.9579,19.5373297 -38.0247,48.53813 -45.199,87.00224 -6.1494,32.96923 -3.3231,59.32387 8.4765,79.0647 11.991,19.53733 31.1692,29.30582 57.5341,29.30582 20.8467,0 39.3851,-4.88425 55.6159,-14.65291 16.2687,-9.97217 31.1666,-25.33586 44.6954,-46.09427 l -9.6796,51.89442 h 42.3067 l 36.3847,-195.06768 c 9.7176,-52.09953 7.7698,-90.97039 -5.8414,-116.61313 -13.6113,-25.64274 -39.0404,-38.46366 -76.2886,-38.46366 z m -704.067,47.01134 c 22.3795,0 37.7291,11.80345 46.0484,35.41105 8.5105,23.40409 8.9135,55.76386 1.2078,97.0771597 -7.7058,41.3132703 -20.1981,73.7727703 -37.4772,97.3803703 -17.088,23.40408 -36.8218,35.10597 -59.2013,35.10597 -22.3795,0 -37.8253,-11.70189 -46.3358,-35.10597 -8.3193,-23.6076 -8.6261,-56.06715 -0.9204,-97.3803703 7.7057,-41.3132997 20.1035,-73.6730697 37.1915,-97.0771597 17.2791,-23.6076 37.1074,-35.41105 59.487,-35.41105 z m 285.6859,0.61016 c 22.5328,0 38.1692,11.90685 46.9104,35.71797 8.7792,23.6076 9.3916,55.66083 1.8377,96.1600797 -7.5918,40.7027503 -20.1804,72.8575403 -37.7661,96.4651403 -17.5857,23.6076 -37.6458,35.41105 -60.1785,35.41105 -22.8395,0 -38.6665,-11.70189 -47.4836,-35.10598 -8.6259,-23.6076 -9.1249,-55.864 -1.4951,-96.7702103 7.6298,-40.9062797 20.2199,-73.0629197 37.7677,-96.4670097 17.5857,-23.6076 37.7214,-35.41104 60.4075,-35.41104 z M 826.2608,-4.3997803 c -0.35009,0.28009 -0.91633,1.09349 -0.6284,0.8875 0.18794,-0.13444 0.3686,-0.28239 0.54466,-0.4382 z m -1.33885,0.38088 c -0.055,0.0115 -0.10969,0.0275 -0.16579,0.0351 -0.33999,0.33739 -0.61709,0.6182 -0.39148,0.4382 0.21664,-0.17288 0.39003,-0.32481 0.55727,-0.47333 z m -1.32301,0.47888 c -0.0953,0.0444 -0.19052,0.0886 -0.28574,0.13312 -0.0944,0.13643 -0.0671,0.0993 -0.14211,0.20708 0.0129,9.5e-4 0.0259,0.003 0.0396,0.004 0.0453,0.0118 0.0299,0.01 0.0711,0.0204 0.099,-0.11728 0.20508,-0.23671 0.31736,-0.36424 z m -0.57311,0.65638 c -0.0275,0.002 -0.0485,0.002 -0.0776,0.004 -0.0918,0.13193 -0.24905,0.3595 -0.27943,0.40492 0.002,8.7e-4 0.0119,0.005 0.0142,0.006 0.0524,-0.0622 0.12622,-0.1512 0.34257,-0.41416 z m -4.75845,1.3146 c -0.0662,0.0215 -0.12392,0.0327 -0.19103,0.0555 -0.10088,0.0342 -0.23322,0.15482 -0.36312,0.2903 0.15565,-0.0483 0.30901,-0.10519 0.46417,-0.15532 0.0648,-0.0602 0.12824,-0.12207 0.19261,-0.18305 -0.0323,-0.005 -0.0694,-0.004 -0.10263,-0.008 z m -0.09,0.19044 c -0.0317,0.0294 -0.0629,0.0601 -0.0947,0.0887 0.25993,-0.0525 0.48928,-0.0947 0.78781,-0.16086 -0.0915,-0.0252 -0.19006,-0.044 -0.2826,-0.0648 -0.13618,0.0479 -0.27332,0.0925 -0.41048,0.13682 z m -0.0947,0.0887 c -0.12504,0.0253 -0.26225,0.0552 -0.37891,0.0776 -0.27092,0.28536997 -0.51213,0.64360997 -0.32524,0.50845997 0.24471,-0.17694 0.47651,-0.37773997 0.70415,-0.58611997 z m -0.37891,0.0776 0.009,-0.0111 c -0.0232,0.008 -0.0462,0.015 -0.0694,0.0222 0.0182,-0.004 0.0416,-0.008 0.06,-0.0111 z m -1.40986,0.48257997 c -0.0834,0.0335 -0.16846,0.0616 -0.25102,0.098 -0.20401,0.0899 -0.68085,0.63513 -0.49732,0.49737 0.25409,-0.19072 0.50031,-0.39397 0.74834,-0.59536 z m -7.81656,0.12017 c -0.005,-0.003 -0.0265,-0.002 -0.0663,0.004 -0.0383,0.006 -0.21289,0.0643 -0.28418,0.0813 0.22964,-0.0344 0.3647,-0.0763 0.35049,-0.0851 z m -0.55258,0.19044 c 0.12888,0.0259 0.0758,0.0188 0.35523,0.0684 0.0821,0.0146 -0.16058,-0.0485 -0.24314,-0.0592 -0.0373,-0.005 -0.0748,-0.006 -0.11209,-0.009 z m 1101.62253,0.39938 h 42.0762 l -2.335,12.51738033 c -6.8327,36.63248 -19.4458,66.03948 -37.8388,88.22254 -18.2017,21.97948 -39.0279,32.96859 -62.4804,32.96859 -17.0145,0 -29.4216,-5.80017 -37.2214,-17.40045 -7.6086,-11.80381 -9.5536,-27.67715 -5.8337,-47.6215 4.6691,-25.03219 14.5628,-42.73736 29.6812,-53.11658 15.1184,-10.3791903 39.7695,-15.56998033 73.9519,-15.56998033 z m -1103.92124,0.41787 c -0.12908,0.0557 -0.22544,0.0917 -0.3647,0.15346 -0.19259,0.0854 -0.6441,0.60010003 -0.4689,0.47333003 0.34296,-0.24818003 0.60036,-0.44508003 0.8336,-0.62679003 z m -3.2444,0.64528003 c -0.4985,0.23986 -1.04203,0.51315 -1.68615,0.86901 -0.0955,0.0527 -0.29689,0.34101 -0.20208,0.28658 0.81607,-0.46877 1.39755,-0.83373 1.88823,-1.15559 z m 19.68114,5.2732 c -0.0652,0.063 1.24127,0.60362 1.70348,0.85051 0.13047,0.0107 0.21405,0.0219 0.32996,0.0332 l 0.0412,-0.22187 c -0.64295,-0.26761 -1.28465,-0.53685 -1.95611,-0.65637 -0.0718,-0.0128 -0.10909,-0.0141 -0.1184,-0.006 z M 807.96582,36.42126 c -0.11015,0.0524 -0.22073,0.10328 -0.32996,0.15901 -0.0324,0.16281 0.0227,0.46049 0.15787,0.8764 0.68242,0.0469 1.36134,0.24221 2.02558,0.68041 0.0674,0.002 0.1744,-1.1e-4 0.23682,0.004 -0.82353,-0.85102 -1.64331,-1.59368 -2.09031,-1.71953 z m -3.33597,0.70445 c -0.0106,0.0159 -0.0209,0.0322 -0.0316,0.0481 0.005,-0.006 0.0107,-0.0109 0.0158,-0.0167 0.006,-0.01 0.0115,-0.0198 0.0174,-0.0295 z m 1.55037,0.13312 c -0.0905,0.0394 -0.18247,0.0754 -0.27313,0.11464 -0.0175,0.10618 -0.034,0.20418 -0.0489,0.30322 0.0833,-0.0209 0.16606,-0.0444 0.24945,-0.0629 0.0267,-0.11721 0.0483,-0.23683 0.0726,-0.355 z m -0.0821,0.38459 c -0.0804,0.0122 -0.15345,0.0176 -0.23998,0.0351 -0.0213,0.14192 -0.0559,0.31433 -0.071,0.4345 0.06,-2e-5 0.11999,3e-5 0.17998,0 0.0432,-0.15672 0.0943,-0.31019 0.13104,-0.46962 z m 3.69436,14.69173 c -0.0868,0.10675 -0.15872,0.2556 -0.21472,0.44189 0.24792,-0.003 0.4956,0.004 0.74361,-0.002 -0.18181,-0.14987 -0.33694,-0.28422 -0.52889,-0.44004 z m -12.07929,13.54909 c -0.0203,0.72436 -0.0401,1.4485 -0.0616,2.17251 0.0201,0.009 0.0399,0.0202 0.06,0.0295 0.0854,-0.73395 0.17132,-1.4677 0.25419,-2.2021 z m 9.5848,31.30083 c 0.0529,-0.009 -0.10796,0.002 -0.15945,0.0185 -0.007,0.003 -0.0146,0.007 -0.0221,0.009 0.0605,-0.009 0.1211,-0.0185 0.18156,-0.0277 z m -0.97095,0.30693 c -0.0831,0.028 -0.1649,0.0616 -0.24944,0.0832 -1.34414,0.34339 -2.08447,0.53356 -3.29335,0.48443 h -3.6691 -1.99559 -1.59456 -1.43197 -1.39564 -1.78876 -1.86612 -3.11179 -2.33818 -2.34766 -3.27124 -1.22671 -4.16326 -2.49448 -1.43512 -2.12662 -1.3767 -4.44744 l -13.76227,73.7878 h 221.18938 l 9.6795,-51.89442 H 803.06684 l 4.18536,-22.43882 c -0.38666,-0.005 -0.68702,-0.009 -0.92517,-0.0222 z"
           sodipodi:nodetypes="cccccscscscccccccccccssccccssccccccsssccccscscccsccccccccccccccccccccccccccccccccsccscscscsssscccsscscscscscccccssscscscscsscssscscscsccscsssccccccccccccccscccccscccssscssscccscssssssccsscssscscscscssscssccsccccccsccccccccccccccscccssscccsssccssccccccccccssccccccccccccccccccccccccss" />
      </g>
    </g>
  </g>
</svg>
